<svg width="363" height="363" viewBox="0 0 363 363" fill="none" xmlns="http://www.w3.org/2000/svg">
<rect width="363" height="363" rx="32" fill="url(#paint0_linear_5_129)"/>
<path fill-rule="evenodd" clip-rule="evenodd" d="M170.545 43.7382C129.615 50.2072 96.7213 73.2763 80.1433 107.137C65.4323 137.186 65.2813 171.251 79.7243 201.607C97.3623 238.678 134.767 262.731 174.778 262.731C203.354 262.731 225.91 246.201 229.86 222.363C232.728 205.053 223.403 186.653 207.783 178.805C204.692 177.251 198.904 174.811 194.921 173.38C179.556 167.863 176.663 165.336 176.663 157.432C176.663 148.999 183.22 144.735 196.163 144.748C221.447 144.775 247.217 167.056 254.047 194.795C256.086 203.075 256.114 218.188 254.106 226.731C252.11 235.225 246.73 246.006 240.837 253.321C231.053 265.466 216.28 274.519 199.163 278.858C187.348 281.854 165.418 282.104 152.895 279.386C135.554 275.623 116.84 267.835 102.491 258.411L95.8343 254.038L84.4993 268.899C78.2643 277.072 73.0583 284.091 72.9313 284.495C72.4983 285.867 87.6323 295.916 98.9263 301.755C143.545 324.826 197.218 326.672 236.047 306.47C263.66 292.104 283.481 267.539 291.415 237.85C293.683 229.362 293.986 226.29 293.986 211.731C293.986 197.146 293.685 194.107 291.399 185.548C281.265 147.611 252.204 119.231 214.163 110.121C204.652 107.843 186.298 107.859 177.743 110.153C149.857 117.629 132.361 144.325 139.024 169.231C143.561 186.191 153.191 195.558 174.514 203.754C187.853 208.881 192.278 211.702 193.14 215.627C194.626 222.393 188.811 225.99 176.471 225.939C150.911 225.833 123.959 205.001 114.253 177.849C111.359 169.753 111.175 168.383 111.208 155.231C111.239 142.719 111.532 140.367 113.959 133.1C121.6 110.224 143.013 91.0822 168.163 84.6472C179.57 81.7282 196.636 81.1132 209.163 83.1692C220.621 85.0502 240.489 91.4043 248.53 95.7593C251.541 97.3893 254.078 98.6133 254.167 98.4773C254.257 98.3423 259.143 91.0903 265.024 82.3613C277.4 63.9953 277.705 66.5073 262.163 58.8043C250.566 53.0573 237.734 48.6503 223.924 45.6723C212.949 43.3053 180.68 42.1362 170.545 43.7382Z" fill="white"/>
<defs>
<linearGradient id="paint0_linear_5_129" x1="17.545" y1="182.46" x2="363" y2="182.46" gradientUnits="userSpaceOnUse">
<stop stop-color="#3AB580"/>
<stop offset="1" stop-color="#32A285"/>
</linearGradient>
</defs>
</svg>
