<svg width="1127" height="454" viewBox="0 0 1127 454" fill="none" xmlns="http://www.w3.org/2000/svg">
<rect y="45" width="363" height="363" rx="32" fill="url(#paint0_linear_11_192)"/>
<path fill-rule="evenodd" clip-rule="evenodd" d="M170.545 88.7382C129.615 95.2072 96.7213 118.276 80.1433 152.137C65.4323 182.186 65.2813 216.251 79.7243 246.607C97.3623 283.678 134.767 307.731 174.778 307.731C203.354 307.731 225.91 291.201 229.86 267.363C232.728 250.053 223.403 231.653 207.783 223.805C204.692 222.251 198.904 219.811 194.921 218.38C179.556 212.863 176.663 210.336 176.663 202.432C176.663 193.999 183.22 189.735 196.163 189.748C221.447 189.775 247.217 212.056 254.047 239.795C256.086 248.075 256.114 263.188 254.106 271.731C252.11 280.225 246.73 291.006 240.837 298.321C231.053 310.466 216.28 319.519 199.163 323.858C187.348 326.854 165.418 327.104 152.895 324.386C135.554 320.623 116.84 312.835 102.491 303.411L95.8343 299.038L84.4993 313.899C78.2643 322.072 73.0583 329.091 72.9313 329.495C72.4983 330.867 87.6323 340.916 98.9263 346.755C143.545 369.826 197.218 371.672 236.047 351.47C263.66 337.104 283.481 312.539 291.415 282.85C293.683 274.362 293.986 271.29 293.986 256.731C293.986 242.146 293.685 239.107 291.399 230.548C281.265 192.611 252.204 164.231 214.163 155.121C204.652 152.843 186.298 152.859 177.743 155.153C149.857 162.629 132.361 189.325 139.024 214.231C143.561 231.191 153.191 240.558 174.514 248.754C187.853 253.881 192.278 256.702 193.14 260.627C194.626 267.393 188.811 270.99 176.471 270.939C150.911 270.833 123.959 250.001 114.253 222.849C111.359 214.753 111.175 213.383 111.208 200.231C111.239 187.719 111.532 185.367 113.959 178.1C121.6 155.224 143.013 136.082 168.163 129.647C179.57 126.728 196.636 126.113 209.163 128.169C220.621 130.05 240.489 136.404 248.53 140.759C251.541 142.389 254.078 143.613 254.167 143.477C254.257 143.342 259.143 136.09 265.024 127.361C277.4 108.995 277.705 111.507 262.163 103.804C250.566 98.0573 237.734 93.6503 223.924 90.6723C212.949 88.3053 180.68 87.1362 170.545 88.7382Z" fill="white"/>
<path d="M483.58 182.16C478.42 182.16 473.32 181.5 468.28 180.18C463.36 178.86 458.74 177 454.42 174.6C450.22 172.08 446.62 169.2 443.62 165.96L459.28 150.12C462.16 153.24 465.58 155.7 469.54 157.5C473.5 159.18 477.82 160.02 482.5 160.02C485.74 160.02 488.2 159.54 489.88 158.58C491.68 157.62 492.58 156.3 492.58 154.62C492.58 152.46 491.5 150.84 489.34 149.76C487.3 148.56 484.66 147.54 481.42 146.7C478.18 145.74 474.76 144.72 471.16 143.64C467.56 142.56 464.14 141.06 460.9 139.14C457.66 137.22 455.02 134.58 452.98 131.22C450.94 127.74 449.92 123.36 449.92 118.08C449.92 112.44 451.36 107.58 454.24 103.5C457.12 99.3 461.2 96 466.48 93.6C471.76 91.2 477.94 90 485.02 90C492.46 90 499.3 91.32 505.54 93.96C511.9 96.48 517.06 100.26 521.02 105.3L505.36 121.14C502.6 117.9 499.48 115.62 496 114.3C492.64 112.98 489.34 112.32 486.1 112.32C482.98 112.32 480.64 112.8 479.08 113.76C477.52 114.6 476.74 115.86 476.74 117.54C476.74 119.34 477.76 120.78 479.8 121.86C481.84 122.94 484.48 123.9 487.72 124.74C490.96 125.58 494.38 126.6 497.98 127.8C501.58 129 505 130.62 508.24 132.66C511.48 134.7 514.12 137.46 516.16 140.94C518.2 144.3 519.22 148.74 519.22 154.26C519.22 162.78 515.98 169.56 509.5 174.6C503.14 179.64 494.5 182.16 483.58 182.16ZM534.161 180V92.52H561.701V180H534.161ZM590.141 180V128.88C590.141 124.44 588.761 121.02 586.001 118.62C583.361 116.1 580.061 114.84 576.101 114.84C573.341 114.84 570.881 115.44 568.721 116.64C566.561 117.72 564.821 119.28 563.501 121.32C562.301 123.36 561.701 125.88 561.701 128.88L551.081 124.2C551.081 117.24 552.581 111.3 555.581 106.38C558.581 101.34 562.661 97.5 567.821 94.86C572.981 92.1 578.801 90.72 585.281 90.72C591.401 90.72 596.861 92.1 601.661 94.86C606.581 97.62 610.481 101.46 613.361 106.38C616.241 111.3 617.681 117.18 617.681 124.02V180H590.141ZM646.121 180V128.88C646.121 124.44 644.741 121.02 641.981 118.62C639.341 116.1 636.041 114.84 632.081 114.84C629.321 114.84 626.861 115.44 624.701 116.64C622.541 117.72 620.801 119.28 619.481 121.32C618.281 123.36 617.681 125.88 617.681 128.88L601.841 126.72C602.081 119.28 603.821 112.92 607.061 107.64C610.421 102.24 614.801 98.1 620.201 95.22C625.721 92.22 631.901 90.72 638.741 90.72C645.461 90.72 651.401 92.16 656.561 95.04C661.841 97.8 665.981 101.82 668.981 107.1C672.101 112.26 673.661 118.5 673.661 125.82V180H646.121ZM727.85 181.8C719.81 181.8 712.61 179.82 706.25 175.86C700.01 171.9 695.03 166.5 691.31 159.66C687.71 152.82 685.91 145.02 685.91 136.26C685.91 127.5 687.71 119.7 691.31 112.86C695.03 106.02 700.01 100.62 706.25 96.66C712.61 92.7 719.81 90.72 727.85 90.72C733.73 90.72 739.01 91.86 743.69 94.14C748.49 96.42 752.39 99.6 755.39 103.68C758.39 107.64 760.07 112.2 760.43 117.36V155.16C760.07 160.32 758.39 164.94 755.39 169.02C752.51 172.98 748.67 176.1 743.87 178.38C739.07 180.66 733.73 181.8 727.85 181.8ZM733.43 156.96C739.31 156.96 744.05 155.04 747.65 151.2C751.25 147.24 753.05 142.26 753.05 136.26C753.05 132.18 752.21 128.58 750.53 125.46C748.97 122.34 746.69 119.94 743.69 118.26C740.81 116.46 737.45 115.56 733.61 115.56C729.77 115.56 726.35 116.46 723.35 118.26C720.47 119.94 718.13 122.34 716.33 125.46C714.65 128.58 713.81 132.18 713.81 136.26C713.81 140.22 714.65 143.76 716.33 146.88C718.01 150 720.35 152.46 723.35 154.26C726.35 156.06 729.71 156.96 733.43 156.96ZM751.97 180V156.42L756.11 135.18L751.97 113.94V92.52H778.97V180H751.97ZM798.361 180V92.52H825.901V180H798.361ZM825.901 131.94L814.381 122.94C816.661 112.74 820.501 104.82 825.901 99.18C831.301 93.54 838.801 90.72 848.401 90.72C852.601 90.72 856.261 91.38 859.381 92.7C862.621 93.9 865.441 95.82 867.841 98.46L851.461 119.16C850.261 117.84 848.761 116.82 846.961 116.1C845.161 115.38 843.121 115.02 840.841 115.02C836.281 115.02 832.621 116.46 829.861 119.34C827.221 122.1 825.901 126.3 825.901 131.94ZM888.476 180V56.34H916.016V180H888.476ZM868.676 115.92V92.52H935.816V115.92H868.676ZM950.47 180V52.92H978.73V180H950.47ZM1022.28 180V155.16H1053.78C1061.46 155.16 1068.18 153.66 1073.94 150.66C1079.7 147.54 1084.14 143.04 1087.26 137.16C1090.38 131.28 1091.94 124.32 1091.94 116.28C1091.94 108.24 1090.32 101.34 1087.08 95.58C1083.96 89.82 1079.52 85.38 1073.76 82.26C1068.12 79.14 1061.46 77.58 1053.78 77.58H1021.38V52.92H1054.14C1063.74 52.92 1072.56 54.48 1080.6 57.6C1088.76 60.6 1095.84 64.98 1101.84 70.74C1107.96 76.38 1112.64 83.1 1115.88 90.9C1119.24 98.58 1120.92 107.1 1120.92 116.46C1120.92 125.7 1119.24 134.22 1115.88 142.02C1112.64 149.82 1108.02 156.54 1102.02 162.18C1096.02 167.82 1088.94 172.2 1080.78 175.32C1072.74 178.44 1063.98 180 1054.5 180H1022.28ZM1003.2 180V52.92H1031.46V180H1003.2Z" fill="black"/>
<path d="M485.38 353V227.72H513.64V353H485.38ZM445.6 250.58V225.92H553.42V250.58H445.6ZM569.201 353V225.92H597.461V353H569.201ZM621.935 353V225.92H642.095L692.135 303.86H681.875L731.735 225.92H752.075V353H723.815V273.62L728.855 274.88L696.275 325.64H677.555L645.155 274.88L650.015 273.62V353H621.935ZM776.447 353V225.92H804.707V353H776.447ZM798.047 353V328.52H867.707V353H798.047ZM798.047 299.9V276.32H861.407V299.9H798.047ZM798.047 250.22V225.92H866.807V250.22H798.047Z" fill="url(#paint1_linear_11_192)"/>
<defs>
<linearGradient id="paint0_linear_11_192" x1="363.022" y1="407.433" x2="146.302" y2="2.92254" gradientUnits="userSpaceOnUse">
<stop stop-color="#A855F7"/>
<stop offset="1" stop-color="#7C3AED"/>
</linearGradient>
<linearGradient id="paint1_linear_11_192" x1="875.026" y1="399.645" x2="790.27" y2="97.8842" gradientUnits="userSpaceOnUse">
<stop stop-color="#A855F7"/>
<stop offset="1" stop-color="#7C3AED"/>
</linearGradient>
</defs>
</svg>
